<?xml version="1.0" encoding="utf-8"?>
<!-- Generator: Adobe Illustrator 24.0.1, SVG Export Plug-In . SVG Version: 6.00 Build 0)  -->
<svg version="1.1" id="Layer_1" xmlns="http://www.w3.org/2000/svg" xmlns:xlink="http://www.w3.org/1999/xlink" x="0px" y="0px"
	 viewBox="0 0 512 512" style="enable-background:new 0 0 512 512;" xml:space="preserve">
<style type="text/css">
	.st0{fill:#C2E39A;}
	.st1{fill:#1A5319;}
</style>
<circle class="st0" cx="256" cy="256" r="256"/>
<path class="st1" d="M455.9,255.7c0,12.5-10.4,22.3-22.2,22.3h-22.2l0.5,111.3c0,1.9-0.1,3.8-0.3,5.6v11.3
	c0,15.4-12.4,27.8-27.8,27.8h-11.1c-0.8,0-1.5,0-2.3-0.1c-1,0.1-1.9,0.1-2.9,0.1l-22.6-0.1h-16.7c-15.4,0-27.8-12.4-27.8-27.8v-16.7
	v-44.5c0-12.3-9.9-22.2-22.2-22.2h-44.5c-12.3,0-22.2,9.9-22.2,22.2v44.5v16.7c0,15.4-12.4,27.8-27.8,27.8h-16.7h-22.2
	c-1,0-2.1-0.1-3.1-0.1c-0.8,0.1-1.7,0.1-2.5,0.1h-11.1c-15.4,0-27.8-12.4-27.8-27.8v-77.8c0-0.6,0-1.3,0.1-1.9v-48.4H78.3
	c-12.5,0-22.2-9.7-22.2-22.3c0-6.3,2.1-11.8,6.9-16.7L241,83.7c4.9-4.9,10.4-5.6,15.3-5.6c4.9,0,10.4,1.4,14.6,4.9L448.3,239
	C453.8,243.9,456.6,249.4,455.9,255.7z"/>
</svg>
