<?xml version="1.0" encoding="utf-8"?>
<!-- Generator: Adobe Illustrator 24.0.1, SVG Export Plug-In . SVG Version: 6.00 Build 0)  -->
<svg version="1.1" id="Layer_1" xmlns="http://www.w3.org/2000/svg" xmlns:xlink="http://www.w3.org/1999/xlink" x="0px" y="0px"
	 viewBox="0 0 512 512" style="enable-background:new 0 0 512 512;" xml:space="preserve">
<style type="text/css">
	.st0{fill:#C2E39A;}
</style>
<path class="st0" d="M255.9,135.2c-66.7,0-120.5,53.8-120.5,120.5s53.8,120.5,120.5,120.5s120.5-53.8,120.5-120.5
	S322.6,135.2,255.9,135.2z M255.9,334c-43.1,0-78.3-35.1-78.3-78.3s35.1-78.3,78.3-78.3s78.3,35.1,78.3,78.3S299,334,255.9,334
	L255.9,334z M409.4,130.3c0,15.6-12.6,28.1-28.1,28.1c-15.6,0-28.1-12.6-28.1-28.1s12.6-28.1,28.1-28.1
	C396.8,102.2,409.4,114.7,409.4,130.3z M489.2,158.8c-1.8-37.7-10.4-71-38-98.5c-27.5-27.5-60.8-36.1-98.5-38
	c-38.8-2.2-155.1-2.2-193.9,0C121.4,24.1,88,32.7,60.5,60.2s-36.1,60.8-38,98.5c-2.2,38.8-2.2,155.1,0,193.9
	c1.8,37.7,10.4,71,38,98.5s60.8,36.1,98.5,38c38.8,2.2,155.1,2.2,193.9,0c37.6-1.8,71-10.4,98.5-38c27.5-27.5,36.1-60.8,38-98.5
	C491.4,313.8,491.4,197.6,489.2,158.8L489.2,158.8z M439.1,394.2c-8.2,20.6-24,36.4-44.7,44.7c-30.9,12.3-104.3,9.4-138.5,9.4
	s-107.7,2.7-138.5-9.4c-20.6-8.2-36.4-24-44.7-44.7c-12.3-30.9-9.4-104.4-9.4-138.5S60.6,148,72.7,117.2c8.2-20.6,24-36.4,44.7-44.7
	C148.3,60.2,221.7,63,255.9,63s107.7-2.7,138.5,9.4c20.6,8.2,36.4,24,44.7,44.7c12.3,30.9,9.4,104.4,9.4,138.5
	S451.3,363.4,439.1,394.2z"/>
</svg>
