<?xml version="1.0" encoding="utf-8"?>
<!-- Generator: Adobe Illustrator 24.0.1, SVG Export Plug-In . SVG Version: 6.00 Build 0)  -->
<svg version="1.1" id="Layer_1" xmlns="http://www.w3.org/2000/svg" xmlns:xlink="http://www.w3.org/1999/xlink" x="0px" y="0px"
	 viewBox="0 0 512 512" style="enable-background:new 0 0 512 512;" xml:space="preserve">
<style type="text/css">
	.st0{fill:#1A5319;}
	.st1{fill:#C2E39A;}
</style>
<path class="st0" d="M476.5,16.6c-22.1-22.1-57.9-22.1-80,0l-30.4,30.3l98.9,98.9l30.4-30.4c22.1-22.1,22.1-57.9,0-80L476.5,16.6z
	 M174.2,238.9c-6.2,6.2-10.9,13.7-13.6,22.1l-29.9,89.7c-2.9,8.7-0.6,18.3,5.9,24.9c6.5,6.6,16.1,8.8,24.9,5.9l89.7-29.9
	c8.3-2.7,15.9-7.5,22.1-13.6l169-169.1l-99-99L174.2,238.9z M97,59.3c-53.6,0-97,43.4-97,97V415c0,53.6,43.4,97,97,97h258.7
	c53.6,0,97-43.4,97-97v-97c0-17.9-14.4-32.3-32.3-32.3c-17.9,0-32.3,14.4-32.3,32.3v97c0,17.9-14.4,32.3-32.3,32.3H97
	c-17.9,0-32.3-14.4-32.3-32.3V156.3c0-17.9,14.4-32.3,32.3-32.3h97c17.9,0,32.3-14.4,32.3-32.3S211.9,59.3,194,59.3H97z"/>
</svg>
